<?xml version="1.0" encoding="UTF-8" standalone="no"?>
<!DOCTYPE svg PUBLIC "-//W3C//DTD SVG 1.1//EN" "http://www.w3.org/Graphics/SVG/1.1/DTD/svg11.dtd">
<!-- Generated by Microsoft Visio, SVG Export spanning-tree-port-roles.svg Page-1 -->
<svg xmlns="http://www.w3.org/2000/svg" xmlns:xlink="http://www.w3.org/1999/xlink" xmlns:ev="http://www.w3.org/2001/xml-events"
		xmlns:v="http://schemas.microsoft.com/visio/2003/SVGExtensions/" width="11.2205in" height="5.70866in"
		viewBox="0 0 807.874 411.024" xml:space="preserve" color-interpolation-filters="sRGB" class="st19">
	<v:documentProperties v:langID="1033" v:metric="true" v:viewMarkup="false">
		<v:userDefs>
			<v:ud v:nameU="msvNoAutoConnect" v:val="VT0(1):26"/>
		</v:userDefs>
	</v:documentProperties>

	<style type="text/css">
	<![CDATA[
		.st1 {fill:#126d99;stroke:#ffffff;stroke-linecap:round;stroke-linejoin:round;stroke-width:0.75}
		.st2 {stroke:#ffffff;stroke-linecap:round;stroke-linejoin:round;stroke-width:1.84623}
		.st3 {fill:#1684b8;stroke:#a5a5a5;stroke-linecap:round;stroke-linejoin:round;stroke-width:0.75}
		.st4 {fill:#ffffff;stroke:#ffffff;stroke-linecap:round;stroke-linejoin:round;stroke-width:0.75}
		.st5 {fill:#000000;stroke:#ffffff;stroke-linecap:round;stroke-linejoin:round;stroke-width:0.75}
		.st6 {stroke:#000000;stroke-linecap:round;stroke-linejoin:round;stroke-width:2.25}
		.st7 {fill:#00b050;stroke:#000000;stroke-linecap:round;stroke-linejoin:round;stroke-width:1.5}
		.st8 {fill:#ffffff;font-family:Segoe UI;font-size:1.5em;font-weight:bold}
		.st9 {fill:#126d99;stroke:#000000;stroke-linecap:round;stroke-linejoin:round;stroke-width:1.5}
		.st10 {fill:#c05046;stroke:#000000;stroke-linecap:round;stroke-linejoin:round;stroke-width:1.5}
		.st11 {fill:none;stroke:none;stroke-linecap:round;stroke-linejoin:round;stroke-width:0.75}
		.st12 {fill:#000000;font-family:Segoe UI;font-size:2.50001em}
		.st13 {font-size:1em;text-decoration:underline}
		.st14 {fill:#000000;font-family:Segoe UI;font-size:1.5em}
		.st15 {fill:#00a248;stroke:#ffffff;stroke-linecap:round;stroke-linejoin:round;stroke-width:0.75}
		.st16 {fill:#00a248;stroke:#a5a5a5;stroke-linecap:round;stroke-linejoin:round;stroke-width:0.75}
		.st17 {fill:#000000;font-family:Segoe UI;font-size:1.5em;font-weight:bold}
		.st18 {font-size:1em}
		.st19 {fill:none;fill-rule:evenodd;font-size:12px;overflow:visible;stroke-linecap:square;stroke-miterlimit:3}
	]]>
	</style>

	<g v:mID="0" v:index="1" v:groupContext="foregroundPage">
		<title>Page-1</title>
		<v:pageProperties v:drawingScale="0.0393701" v:pageScale="0.0393701" v:drawingUnits="24" v:shadowOffsetX="8.50394"
				v:shadowOffsetY="-8.50394"/>
		<v:layer v:name="Connector" v:index="0"/>
		<g id="shape19-1" v:mID="19" v:groupContext="shape" transform="translate(432.62,-60.6881)">
			<title>Sheet.19</title>
			<path d="M0 375.86 L0 411.02 L140.12 411.02 L140.12 375.86 L0 375.86 L0 375.86 L0 375.86 Z" class="st1"/>
		</g>
		<g id="shape20-3" v:mID="20" v:groupContext="shape" transform="translate(432.62,-60.6881)">
			<title>Sheet.20</title>
			<path d="M0 375.86 L0 411.02 L140.12 411.02 L140.12 375.86 L0 375.86 L0 375.86 L0 375.86" class="st2"/>
		</g>
		<g id="shape21-6" v:mID="21" v:groupContext="shape" transform="translate(572.737,-60.6881)">
			<title>Sheet.21</title>
			<path d="M0 375.86 L42.58 333.03 L42.58 368.19 L0 411.02 L0 375.86 L0 375.86 L0 375.86 Z" class="st1"/>
		</g>
		<g id="shape22-8" v:mID="22" v:groupContext="shape" transform="translate(572.737,-60.6881)">
			<title>Sheet.22</title>
			<path d="M0 375.86 L42.58 333.03 L42.58 368.19 L0 411.02 L0 375.86 L0 375.86 L0 375.86" class="st2"/>
		</g>
		<g id="shape23-11" v:mID="23" v:groupContext="shape" transform="translate(432.62,-95.8499)">
			<title>Sheet.23</title>
			<path d="M140.12 411.02 L182.69 368.19 L42.58 368.19 L0 411.02 L140.12 411.02 L140.12 411.02 L140.12 411.02 Z"
					class="st3"/>
		</g>
		<g id="shape24-13" v:mID="24" v:groupContext="shape" transform="translate(432.62,-95.8499)">
			<title>Sheet.24</title>
			<path d="M140.12 411.02 L182.69 368.19 L42.58 368.19 L0 411.02 L140.12 411.02 L140.12 411.02 L140.12 411.02"
					class="st2"/>
		</g>
		<g id="shape25-16" v:mID="25" v:groupContext="shape" transform="translate(515.546,-104.48)">
			<title>Sheet.25</title>
			<path d="M5.08 399.84 L0 404.95 L36.54 404.95 L30.18 411.02 L59.73 402.71 L44.16 396.64 L40.99 399.84 L5.08 399.84 L5.08
						 399.84 L5.08 399.84 Z" class="st4"/>
		</g>
		<g id="shape26-18" v:mID="26" v:groupContext="shape" transform="translate(533.021,-122.061)">
			<title>Sheet.26</title>
			<path d="M5.08 399.84 L0 404.95 L36.54 404.95 L30.18 411.02 L59.73 402.71 L44.16 396.64 L40.99 399.84 L5.08 399.84 L5.08
						 399.84 L5.08 399.84 Z" class="st4"/>
		</g>
		<g id="shape27-20" v:mID="27" v:groupContext="shape" transform="translate(452.955,-99.366)">
			<title>Sheet.27</title>
			<path d="M54.65 407.83 L59.73 402.71 L23.51 402.71 L29.55 396.64 L0 404.95 L15.57 411.02 L19.06 407.83 L54.65 407.83
						 L54.65 407.83 L54.65 407.83 Z" class="st4"/>
		</g>
		<g id="shape28-22" v:mID="28" v:groupContext="shape" transform="translate(470.43,-116.947)">
			<title>Sheet.28</title>
			<path d="M54.65 407.83 L59.73 402.71 L23.51 402.71 L29.55 396.64 L0 404.95 L15.57 411.02 L19.06 407.83 L54.65 407.83
						 L54.65 407.83 L54.65 407.83 Z" class="st4"/>
		</g>
		<g id="shape29-24" v:mID="29" v:groupContext="shape" transform="translate(431.06,-59.0687)">
			<title>Sheet.29</title>
			<path d="M65.74 399.49 L65.74 399.49 L65.74 399.49 Z" class="st4"/>
		</g>
		<g id="shape30-26" v:mID="30" v:groupContext="shape" transform="translate(431.06,-59.0687)">
			<title>Sheet.30</title>
		</g>
		<g id="shape31-27" v:mID="31" v:groupContext="shape" transform="translate(431.06,-59.0687)">
			<title>Sheet.31</title>
			<path d="M65.74 398.54 L65.74 398.54 L65.74 398.54 Z" class="st5"/>
		</g>
		<g id="shape32-29" v:mID="32" v:groupContext="shape" transform="translate(431.06,-59.0687)">
			<title>Sheet.32</title>
		</g>
		<g id="shape33-30" v:mID="33" v:groupContext="shape" transform="translate(431.06,-59.0687)">
			<title>Sheet.33</title>
			<path d="M67.65 389.91 L67.65 389.91 L67.65 389.91 Z" class="st5"/>
		</g>
		<g id="shape34-32" v:mID="34" v:groupContext="shape" transform="translate(431.06,-59.0687)">
			<title>Sheet.34</title>
		</g>
		<g id="shape57-33" v:mID="57" v:groupContext="shape" v:layerMember="0" transform="translate(140.509,-167.03)">
			<title>Dynamic connector</title>
			<path d="M0 411.02 L145.28 307.1" class="st6"/>
		</g>
		<g id="shape59-36" v:mID="59" v:groupContext="shape" v:layerMember="0" transform="translate(377.91,-270.949)">
			<title>Dynamic connector.59</title>
			<path d="M0 411.02 L116.93 514.94" class="st6"/>
		</g>
		<g id="shape60-39" v:mID="60" v:groupContext="shape" v:layerMember="0" transform="translate(253.895,-72.5504)">
			<title>Dynamic connector.60</title>
			<path d="M0 403.94 L120.47 403.94" class="st6"/>
		</g>
		<g id="shape61-42" v:mID="61" v:groupContext="shape" transform="translate(115.706,-143.39)">
			<title>Rectangle</title>
			<desc>RP</desc>
			<v:userDefs>
				<v:ud v:nameU="visVersion" v:val="VT0(15):26"/>
			</v:userDefs>
			<v:textBlock v:margins="rect(4,4,4,4)" v:tabSpace="42.5197"/>
			<v:textRect cx="24.8031" cy="399.204" width="49.61" height="23.6399"/>
			<rect x="0" y="387.384" width="49.6063" height="23.6399" rx="2.83465" ry="2.83465" class="st7"/>
			<text x="13.4" y="404.6" class="st8" v:langID="1033"><v:paragraph v:horizAlign="1"/><v:tabList/>RP</text>		</g>
		<g id="shape62-45" v:mID="62" v:groupContext="shape" transform="translate(353.107,-270.949)">
			<title>Rectangle.62</title>
			<desc>DP</desc>
			<v:userDefs>
				<v:ud v:nameU="visVersion" v:val="VT0(15):26"/>
			</v:userDefs>
			<v:textBlock v:margins="rect(4,4,4,4)" v:tabSpace="42.5197"/>
			<v:textRect cx="24.8031" cy="399.204" width="49.61" height="23.6399"/>
			<rect x="0" y="387.384" width="49.6063" height="23.6399" rx="2.83465" ry="2.83465" class="st9"/>
			<text x="12.64" y="404.6" class="st8" v:langID="1033"><v:paragraph v:horizAlign="1"/><v:tabList/>DP</text>		</g>
		<g id="shape63-48" v:mID="63" v:groupContext="shape" transform="translate(260.981,-270.949)">
			<title>Rectangle.63</title>
			<desc>DP</desc>
			<v:userDefs>
				<v:ud v:nameU="visVersion" v:val="VT0(15):26"/>
			</v:userDefs>
			<v:textBlock v:margins="rect(4,4,4,4)" v:tabSpace="42.5197"/>
			<v:textRect cx="24.8031" cy="399.204" width="49.61" height="23.6399"/>
			<rect x="0" y="387.384" width="49.6063" height="23.6399" rx="2.83465" ry="2.83465" class="st9"/>
			<text x="12.64" y="404.6" class="st8" v:langID="1033"><v:paragraph v:horizAlign="1"/><v:tabList/>DP</text>		</g>
		<g id="shape64-51" v:mID="64" v:groupContext="shape" transform="translate(204.288,-67.8171)">
			<title>Rectangle.64</title>
			<desc>BLK</desc>
			<v:userDefs>
				<v:ud v:nameU="visVersion" v:val="VT0(15):26"/>
			</v:userDefs>
			<v:textBlock v:margins="rect(4,4,4,4)" v:tabSpace="42.5197"/>
			<v:textRect cx="24.8031" cy="399.204" width="49.61" height="23.6399"/>
			<rect x="0" y="387.384" width="49.6063" height="23.6399" rx="2.83465" ry="2.83465" class="st10"/>
			<text x="8.59" y="404.6" class="st8" v:langID="1033"><v:paragraph v:horizAlign="1"/><v:tabList/>BLK</text>		</g>
		<g id="shape65-54" v:mID="65" v:groupContext="shape" transform="translate(374.367,-67.8171)">
			<title>Rectangle.65</title>
			<desc>DP</desc>
			<v:userDefs>
				<v:ud v:nameU="visVersion" v:val="VT0(15):26"/>
			</v:userDefs>
			<v:textBlock v:margins="rect(4,4,4,4)" v:tabSpace="42.5197"/>
			<v:textRect cx="24.8031" cy="399.204" width="49.61" height="23.6399"/>
			<rect x="0" y="387.384" width="49.6063" height="23.6399" rx="2.83465" ry="2.83465" class="st9"/>
			<text x="12.64" y="404.6" class="st8" v:langID="1033"><v:paragraph v:horizAlign="1"/><v:tabList/>DP</text>		</g>
		<g id="shape66-57" v:mID="66" v:groupContext="shape" transform="translate(470.036,-143.39)">
			<title>Rectangle.66</title>
			<desc>RP</desc>
			<v:userDefs>
				<v:ud v:nameU="visVersion" v:val="VT0(15):26"/>
			</v:userDefs>
			<v:textBlock v:margins="rect(4,4,4,4)" v:tabSpace="42.5197"/>
			<v:textRect cx="24.8031" cy="399.204" width="49.61" height="23.6399"/>
			<rect x="0" y="387.384" width="49.6063" height="23.6399" rx="2.83465" ry="2.83465" class="st7"/>
			<text x="13.4" y="404.6" class="st8" v:langID="1033"><v:paragraph v:horizAlign="1"/><v:tabList/>RP</text>		</g>
		<g id="group70-60" transform="translate(27.1229,-59.0687)" v:mID="70" v:groupContext="group">
			<title>Sheet.70</title>
			<g id="shape2-61" v:mID="2" v:groupContext="shape" transform="translate(1.56039,-1.61945)">
				<title>Sheet.2</title>
				<path d="M0 375.86 L0 411.02 L140.12 411.02 L140.12 375.86 L0 375.86 L0 375.86 L0 375.86 Z" class="st1"/>
			</g>
			<g id="shape3-63" v:mID="3" v:groupContext="shape" transform="translate(1.56039,-1.61945)">
				<title>Sheet.3</title>
				<path d="M0 375.86 L0 411.02 L140.12 411.02 L140.12 375.86 L0 375.86 L0 375.86 L0 375.86" class="st2"/>
			</g>
			<g id="shape4-66" v:mID="4" v:groupContext="shape" transform="translate(141.677,-1.61945)">
				<title>Sheet.4</title>
				<path d="M0 375.86 L42.58 333.03 L42.58 368.19 L0 411.02 L0 375.86 L0 375.86 L0 375.86 Z" class="st1"/>
			</g>
			<g id="shape5-68" v:mID="5" v:groupContext="shape" transform="translate(141.677,-1.61945)">
				<title>Sheet.5</title>
				<path d="M0 375.86 L42.58 333.03 L42.58 368.19 L0 411.02 L0 375.86 L0 375.86 L0 375.86" class="st2"/>
			</g>
			<g id="shape6-71" v:mID="6" v:groupContext="shape" transform="translate(1.56039,-36.7812)">
				<title>Sheet.6</title>
				<path d="M140.12 411.02 L182.69 368.19 L42.58 368.19 L0 411.02 L140.12 411.02 L140.12 411.02 L140.12 411.02 Z"
						class="st3"/>
			</g>
			<g id="shape7-73" v:mID="7" v:groupContext="shape" transform="translate(1.56039,-36.7812)">
				<title>Sheet.7</title>
				<path d="M140.12 411.02 L182.69 368.19 L42.58 368.19 L0 411.02 L140.12 411.02 L140.12 411.02 L140.12 411.02"
						class="st2"/>
			</g>
			<g id="shape8-76" v:mID="8" v:groupContext="shape" transform="translate(84.4865,-45.4118)">
				<title>Sheet.8</title>
				<path d="M5.08 399.84 L0 404.95 L36.54 404.95 L30.18 411.02 L59.73 402.71 L44.16 396.64 L40.99 399.84 L5.08 399.84
							 L5.08 399.84 L5.08 399.84 Z" class="st4"/>
			</g>
			<g id="shape9-78" v:mID="9" v:groupContext="shape" transform="translate(101.961,-62.9926)">
				<title>Sheet.9</title>
				<path d="M5.08 399.84 L0 404.95 L36.54 404.95 L30.18 411.02 L59.73 402.71 L44.16 396.64 L40.99 399.84 L5.08 399.84
							 L5.08 399.84 L5.08 399.84 Z" class="st4"/>
			</g>
			<g id="shape10-80" v:mID="10" v:groupContext="shape" transform="translate(21.8948,-40.2973)">
				<title>Sheet.10</title>
				<path d="M54.65 407.83 L59.73 402.71 L23.51 402.71 L29.55 396.64 L0 404.95 L15.57 411.02 L19.06 407.83 L54.65 407.83
							 L54.65 407.83 L54.65 407.83 Z" class="st4"/>
			</g>
			<g id="shape11-82" v:mID="11" v:groupContext="shape" transform="translate(39.3696,-57.8782)">
				<title>Sheet.11</title>
				<path d="M54.65 407.83 L59.73 402.71 L23.51 402.71 L29.55 396.64 L0 404.95 L15.57 411.02 L19.06 407.83 L54.65 407.83
							 L54.65 407.83 L54.65 407.83 Z" class="st4"/>
			</g>
			<g id="shape12-84" v:mID="12" v:groupContext="shape">
				<title>Sheet.12</title>
				<path d="M65.74 399.49 L65.74 399.49 L65.74 399.49 Z" class="st4"/>
			</g>
			<g id="shape13-86" v:mID="13" v:groupContext="shape">
				<title>Sheet.13</title>
			</g>
			<g id="shape14-87" v:mID="14" v:groupContext="shape">
				<title>Sheet.14</title>
				<path d="M65.74 398.54 L65.74 398.54 L65.74 398.54 Z" class="st5"/>
			</g>
			<g id="shape15-89" v:mID="15" v:groupContext="shape">
				<title>Sheet.15</title>
			</g>
			<g id="shape16-90" v:mID="16" v:groupContext="shape">
				<title>Sheet.16</title>
				<path d="M67.65 389.91 L67.65 389.91 L67.65 389.91 Z" class="st5"/>
			</g>
			<g id="shape17-92" v:mID="17" v:groupContext="shape">
				<title>Sheet.17</title>
			</g>
		</g>
		<g id="shape71-93" v:mID="71" v:groupContext="shape" transform="translate(602.362,-304.286)">
			<title>Rectangle.71</title>
			<desc>DP</desc>
			<v:userDefs>
				<v:ud v:nameU="visVersion" v:val="VT0(15):26"/>
			</v:userDefs>
			<v:textBlock v:margins="rect(4,4,4,4)" v:tabSpace="42.5197"/>
			<v:textRect cx="24.8031" cy="399.204" width="49.61" height="23.6399"/>
			<rect x="0" y="387.384" width="49.6063" height="23.6399" rx="2.83465" ry="2.83465" class="st9"/>
			<text x="12.64" y="404.6" class="st8" v:langID="1033"><v:paragraph v:horizAlign="1"/><v:tabList/>DP</text>		</g>
		<g id="shape72-96" v:mID="72" v:groupContext="shape" transform="translate(602.362,-259.386)">
			<title>Rectangle.72</title>
			<desc>RP</desc>
			<v:userDefs>
				<v:ud v:nameU="visVersion" v:val="VT0(15):26"/>
			</v:userDefs>
			<v:textBlock v:margins="rect(4,4,4,4)" v:tabSpace="42.5197"/>
			<v:textRect cx="24.8031" cy="399.204" width="49.61" height="23.6399"/>
			<rect x="0" y="387.384" width="49.6063" height="23.6399" rx="2.83465" ry="2.83465" class="st7"/>
			<text x="13.4" y="404.6" class="st8" v:langID="1033"><v:paragraph v:horizAlign="1"/><v:tabList/>RP</text>		</g>
		<g id="shape73-99" v:mID="73" v:groupContext="shape" transform="translate(602.362,-214.487)">
			<title>Rectangle.73</title>
			<desc>BLK</desc>
			<v:userDefs>
				<v:ud v:nameU="visVersion" v:val="VT0(15):26"/>
			</v:userDefs>
			<v:textBlock v:margins="rect(4,4,4,4)" v:tabSpace="42.5197"/>
			<v:textRect cx="24.8031" cy="399.204" width="49.61" height="23.6399"/>
			<rect x="0" y="387.384" width="49.6063" height="23.6399" rx="2.83465" ry="2.83465" class="st10"/>
			<text x="8.59" y="404.6" class="st8" v:langID="1033"><v:paragraph v:horizAlign="1"/><v:tabList/>BLK</text>		</g>
		<g id="shape74-102" v:mID="74" v:groupContext="shape" transform="translate(612.992,-349.186)">
			<title>Sheet.74</title>
			<desc>Legend</desc>
			<v:textBlock v:margins="rect(4,4,4,4)" v:tabSpace="42.5197"/>
			<v:textRect cx="100.887" cy="393.666" width="201.78" height="34.7147"/>
			<rect x="0" y="376.309" width="201.775" height="34.7147" class="st11"/>
			<text x="4" y="402.67" class="st12" v:langID="1033"><v:paragraph/><v:tabList/><tspan class="st13">Legend</tspan></text>		</g>
		<g id="shape75-106" v:mID="75" v:groupContext="shape" transform="translate(662.767,-304.286)">
			<title>Sheet.75</title>
			<desc>Designated Port</desc>
			<v:textBlock v:margins="rect(4,4,4,4)" v:tabSpace="42.5197"/>
			<v:textRect cx="76" cy="399.204" width="152" height="23.6399"/>
			<rect x="0" y="387.384" width="152" height="23.6399" class="st11"/>
			<text x="4" y="404.6" class="st14" v:langID="1033"><v:paragraph/><v:tabList/>Designated Port</text>		</g>
		<g id="shape76-109" v:mID="76" v:groupContext="shape" transform="translate(662.767,-259.386)">
			<title>Sheet.76</title>
			<desc>Root Port</desc>
			<v:textBlock v:margins="rect(4,4,4,4)" v:tabSpace="42.5197"/>
			<v:textRect cx="76" cy="399.204" width="152" height="23.6399"/>
			<rect x="0" y="387.384" width="152" height="23.6399" class="st11"/>
			<text x="4" y="404.6" class="st14" v:langID="1033"><v:paragraph/><v:tabList/>Root Port</text>		</g>
		<g id="shape77-112" v:mID="77" v:groupContext="shape" transform="translate(662.767,-214.487)">
			<title>Sheet.77</title>
			<desc>Blocked Port</desc>
			<v:textBlock v:margins="rect(4,4,4,4)" v:tabSpace="42.5197"/>
			<v:textRect cx="76" cy="399.204" width="152" height="23.6399"/>
			<rect x="0" y="387.384" width="152" height="23.6399" class="st11"/>
			<text x="4" y="404.6" class="st14" v:langID="1033"><v:paragraph/><v:tabList/>Blocked Port</text>		</g>
		<g id="group79-115" transform="translate(255.118,-304.286)" v:mID="79" v:groupContext="group">
			<title>Sheet.79</title>
			<g id="group69-116" v:mID="69" v:groupContext="group">
				<title>Sheet.69</title>
				<g id="shape36-117" v:mID="36" v:groupContext="shape" transform="translate(1.70279,-1.76724)">
					<title>Sheet.36</title>
					<path d="M0 372.65 L0 411.02 L152.9 411.02 L152.9 372.65 L0 372.65 L0 372.65 L0 372.65 Z" class="st15"/>
				</g>
				<g id="shape37-119" v:mID="37" v:groupContext="shape" transform="translate(1.70279,-1.76724)">
					<title>Sheet.37</title>
					<path d="M0 372.65 L0 411.02 L152.9 411.02 L152.9 372.65 L0 372.65 L0 372.65 L0 372.65" class="st2"/>
				</g>
				<g id="shape38-122" v:mID="38" v:groupContext="shape" transform="translate(154.606,-1.76724)">
					<title>Sheet.38</title>
					<path d="M0 372.65 L46.46 325.91 L46.46 364.28 L0 411.02 L0 372.65 L0 372.65 L0 372.65 Z" class="st15"/>
				</g>
				<g id="shape39-124" v:mID="39" v:groupContext="shape" transform="translate(154.606,-1.76724)">
					<title>Sheet.39</title>
					<path d="M0 372.65 L46.46 325.91 L46.46 364.28 L0 411.02 L0 372.65 L0 372.65 L0 372.65" class="st2"/>
				</g>
				<g id="shape40-127" v:mID="40" v:groupContext="shape" transform="translate(1.70279,-40.1377)">
					<title>Sheet.40</title>
					<path d="M152.9 411.02 L199.36 364.28 L46.46 364.28 L0 411.02 L152.9 411.02 L152.9 411.02 L152.9 411.02 Z"
							class="st16"/>
				</g>
				<g id="shape41-129" v:mID="41" v:groupContext="shape" transform="translate(1.70279,-40.1377)">
					<title>Sheet.41</title>
					<path d="M152.9 411.02 L199.36 364.28 L46.46 364.28 L0 411.02 L152.9 411.02 L152.9 411.02 L152.9 411.02"
							class="st2"/>
				</g>
				<g id="shape42-132" v:mID="42" v:groupContext="shape" transform="translate(92.1964,-49.5559)">
					<title>Sheet.42</title>
					<path d="M5.55 398.81 L0 404.4 L39.87 404.4 L32.94 411.02 L65.18 401.95 L48.19 395.33 L44.73 398.81 L5.55 398.81
								 L5.55 398.81 L5.55 398.81 Z" class="st4"/>
				</g>
				<g id="shape43-134" v:mID="43" v:groupContext="shape" transform="translate(111.266,-68.7411)">
					<title>Sheet.43</title>
					<path d="M5.55 398.81 L0 404.4 L39.87 404.4 L32.94 411.02 L65.18 401.95 L48.19 395.33 L44.73 398.81 L5.55 398.81
								 L5.55 398.81 L5.55 398.81 Z" class="st4"/>
				</g>
				<g id="shape44-136" v:mID="44" v:groupContext="shape" transform="translate(23.8928,-43.9747)">
					<title>Sheet.44</title>
					<path d="M59.64 407.54 L65.18 401.95 L25.66 401.95 L32.24 395.33 L0 404.4 L16.99 411.02 L20.8 407.54 L59.64 407.54
								 L59.64 407.54 L59.64 407.54 Z" class="st4"/>
				</g>
				<g id="shape45-138" v:mID="45" v:groupContext="shape" transform="translate(42.9623,-63.1599)">
					<title>Sheet.45</title>
					<path d="M59.64 407.54 L65.18 401.95 L25.66 401.95 L32.24 395.33 L0 404.4 L16.99 411.02 L20.8 407.54 L59.64 407.54
								 L59.64 407.54 L59.64 407.54 Z" class="st4"/>
				</g>
				<g id="shape46-140" v:mID="46" v:groupContext="shape">
					<title>Sheet.46</title>
					<path d="M71.74 398.44 L71.74 398.44 L71.74 398.44 Z" class="st15"/>
				</g>
				<g id="shape47-142" v:mID="47" v:groupContext="shape">
					<title>Sheet.47</title>
				</g>
				<g id="shape48-143" v:mID="48" v:groupContext="shape">
					<title>Sheet.48</title>
					<path d="M71.74 397.4 L71.74 397.4 L71.74 397.4 Z" class="st15"/>
				</g>
				<g id="shape49-145" v:mID="49" v:groupContext="shape">
					<title>Sheet.49</title>
				</g>
				<g id="shape50-146" v:mID="50" v:groupContext="shape">
					<title>Sheet.50</title>
					<path d="M73.82 387.98 L73.82 387.98 L73.82 387.98 Z" class="st15"/>
				</g>
				<g id="shape51-148" v:mID="51" v:groupContext="shape">
					<title>Sheet.51</title>
				</g>
			</g>
			<g id="shape78-149" v:mID="78" v:groupContext="shape" transform="translate(5.04628,-3.26219)">
				<title>Sheet.78</title>
				<desc>Root Bridge</desc>
				<v:textBlock v:margins="rect(4,4,4,4)" v:tabSpace="42.5197"/>
				<v:textRect cx="74.7042" cy="394.135" width="149.41" height="33.7777"/>
				<rect x="0" y="377.246" width="149.408" height="33.7777" class="st11"/>
				<text x="23.92" y="399.53" class="st17" v:langID="1033"><v:paragraph v:horizAlign="1"/><v:tabList/>Root Bridge</text>			</g>
		</g>
		<g id="shape80-152" v:mID="80" v:groupContext="shape" transform="translate(115.706,-307.002)">
			<title>Sheet.80</title>
			<desc>Priority 4096 (configured)</desc>
			<v:textBlock v:margins="rect(4,4,4,4)" v:tabSpace="42.5197"/>
			<v:textRect cx="65.1866" cy="372.026" width="130.38" height="77.9951"/>
			<rect x="0" y="333.029" width="130.373" height="77.9951" class="st11"/>
			<text x="25.96" y="366.63" class="st14" v:langID="1033"><v:paragraph v:horizAlign="2"/><v:tabList/>Priority 4096<v:newlineChar/><tspan
						x="29.41" dy="1.2em" class="st18">(configured)</tspan></text>		</g>
		<g id="shape81-156" v:mID="81" v:groupContext="shape" transform="translate(26.027,-6.9797)">
			<title>Sheet.81</title>
			<desc>Priority 32768 (default)</desc>
			<v:textBlock v:margins="rect(4,4,4,4)" v:tabSpace="42.5197"/>
			<v:textRect cx="76" cy="386.167" width="152" height="49.7132"/>
			<rect x="0" y="361.31" width="152" height="49.7132" class="st11"/>
			<text x="20.94" y="380.77" class="st14" v:langID="1033"><v:paragraph v:horizAlign="1"/><v:tabList/>Priority 32768<v:newlineChar/><tspan
						x="42.84" dy="1.2em" class="st18">(default)</tspan></text>		</g>
		<g id="shape82-160" v:mID="82" v:groupContext="shape" transform="translate(431.06,-6.9797)">
			<title>Sheet.82</title>
			<desc>Priority 32768 (default)</desc>
			<v:textBlock v:margins="rect(4,4,4,4)" v:tabSpace="42.5197"/>
			<v:textRect cx="76" cy="386.167" width="152" height="49.7132"/>
			<rect x="0" y="361.31" width="152" height="49.7132" class="st11"/>
			<text x="20.94" y="380.77" class="st14" v:langID="1033"><v:paragraph v:horizAlign="1"/><v:tabList/>Priority 32768<v:newlineChar/><tspan
						x="42.84" dy="1.2em" class="st18">(default)</tspan></text>		</g>
	</g>
</svg>
